<?xml version="1.0" encoding="UTF-8"?>
<!DOCTYPE svg PUBLIC "-//W3C//DTD SVG 1.1//EN" "http://www.w3.org/Graphics/SVG/1.1/DTD/svg11.dtd">
<svg version="1.1" xmlns="http://www.w3.org/2000/svg" xmlns:xlink="http://www.w3.org/1999/xlink" x="0" y="0" width="650" height="295.75" viewBox="0, 0, 1000, 455">
  <g id="Layer_1">
    <g>
      <path d="M92,74.667 L376,74.667 L376,389.333 L92,389.333 L92,74.667 z" fill="#FFFFFF"/>
      <path d="M92,74.667 L376,74.667 L376,389.333 L92,389.333 L92,74.667 z" fill-opacity="0" stroke="#000000" stroke-width="1"/>
    </g>
    <text transform="matrix(1, 0, 0, 1, 720.542, 227.5)" id="3">
      <tspan x="-269.093" y="-135.5" font-family="DejaVuSans" font-size="68" fill="#000000">Solder side</tspan>
      <tspan x="-269.093" y="-56.5" font-family="DejaVuSans" font-size="68" fill="#000000">1: ADB Data</tspan>
      <tspan x="-269.093" y="22.5" font-family="DejaVuSans" font-size="68" fill="#000000">2: Power Key</tspan>
      <tspan x="-269.093" y="101.5" font-family="DejaVuSans" font-size="68" fill="#000000">3: GND</tspan>
      <tspan x="-269.093" y="180.5" font-family="DejaVuSans" font-size="68" fill="#000000">4: +5V DC</tspan>
    </text>
    <g>
      <path d="M169.333,252 C159.76,252 152,244.24 152,234.667 C152,225.094 159.76,217.333 169.333,217.333 C178.906,217.333 186.667,225.094 186.667,234.667 C186.667,244.24 178.906,252 169.333,252 z" fill="#FFFFFF"/>
      <path d="M169.333,252 C159.76,252 152,244.24 152,234.667 C152,225.094 159.76,217.333 169.333,217.333 C178.906,217.333 186.667,225.094 186.667,234.667 C186.667,244.24 178.906,252 169.333,252 z" fill-opacity="0" stroke="#000000" stroke-width="1"/>
    </g>
    <g>
      <path d="M182.667,138.667 C173.094,138.667 165.333,130.906 165.333,121.333 C165.333,111.76 173.094,104 182.667,104 C192.24,104 200,111.76 200,121.333 C200,130.906 192.24,138.667 182.667,138.667 z" fill="#FFFFFF"/>
      <path d="M182.667,138.667 C173.094,138.667 165.333,130.906 165.333,121.333 C165.333,111.76 173.094,104 182.667,104 C192.24,104 200,111.76 200,121.333 C200,130.906 192.24,138.667 182.667,138.667 z" fill-opacity="0" stroke="#000000" stroke-width="1"/>
    </g>
    <g>
      <path d="M182.667,365.333 C173.094,365.333 165.333,357.573 165.333,348 C165.333,338.427 173.094,330.667 182.667,330.667 C192.24,330.667 200,338.427 200,348 C200,357.573 192.24,365.333 182.667,365.333 z" fill="#FFFFFF"/>
      <path d="M182.667,365.333 C173.094,365.333 165.333,357.573 165.333,348 C165.333,338.427 173.094,330.667 182.667,330.667 C192.24,330.667 200,338.427 200,348 C200,357.573 192.24,365.333 182.667,365.333 z" fill-opacity="0" stroke="#000000" stroke-width="1"/>
    </g>
    <g>
      <path d="M233.333,188 C228.179,188 224,183.821 224,178.667 C224,173.512 228.179,169.333 233.333,169.333 C238.488,169.333 242.667,173.512 242.667,178.667 C242.667,183.821 238.488,188 233.333,188 z" fill="#000000"/>
      <path d="M233.333,188 C228.179,188 224,183.821 224,178.667 C224,173.512 228.179,169.333 233.333,169.333 C238.488,169.333 242.667,173.512 242.667,178.667 C242.667,183.821 238.488,188 233.333,188 z" fill-opacity="0" stroke="#000000" stroke-width="1"/>
    </g>
    <g>
      <path d="M281.333,188 C276.179,188 272,183.821 272,178.667 C272,173.512 276.179,169.333 281.333,169.333 C286.488,169.333 290.667,173.512 290.667,178.667 C290.667,183.821 286.488,188 281.333,188 z" fill="#000000"/>
      <path d="M281.333,188 C276.179,188 272,183.821 272,178.667 C272,173.512 276.179,169.333 281.333,169.333 C286.488,169.333 290.667,173.512 290.667,178.667 C290.667,183.821 286.488,188 281.333,188 z" fill-opacity="0" stroke="#000000" stroke-width="1"/>
    </g>
    <g>
      <path d="M233.333,300 C228.179,300 224,295.821 224,290.667 C224,285.512 228.179,281.333 233.333,281.333 C238.488,281.333 242.667,285.512 242.667,290.667 C242.667,295.821 238.488,300 233.333,300 z" fill="#000000"/>
      <path d="M233.333,300 C228.179,300 224,295.821 224,290.667 C224,285.512 228.179,281.333 233.333,281.333 C238.488,281.333 242.667,285.512 242.667,290.667 C242.667,295.821 238.488,300 233.333,300 z" fill-opacity="0" stroke="#000000" stroke-width="1"/>
    </g>
    <g>
      <path d="M281.333,300 C276.179,300 272,295.821 272,290.667 C272,285.512 276.179,281.333 281.333,281.333 C286.488,281.333 290.667,285.512 290.667,290.667 C290.667,295.821 286.488,300 281.333,300 z" fill="#000000"/>
      <path d="M281.333,300 C276.179,300 272,295.821 272,290.667 C272,285.512 276.179,281.333 281.333,281.333 C286.488,281.333 290.667,285.512 290.667,290.667 C290.667,295.821 286.488,300 281.333,300 z" fill-opacity="0" stroke="#000000" stroke-width="1"/>
    </g>
    <text transform="matrix(1, 0, 0, 1, 202.368, 178.667)">
      <tspan x="-21.632" y="22.5" font-family="DejaVuSans" font-size="68" fill="#000000">1</tspan>
    </text>
    <text transform="matrix(1, 0, 0, 1, 202.368, 290.667)">
      <tspan x="-21.632" y="22.5" font-family="DejaVuSans" font-size="68" fill="#000000">2</tspan>
    </text>
    <text transform="matrix(1, 0, 0, 1, 318.368, 290.667)">
      <tspan x="-21.632" y="22.5" font-family="DejaVuSans" font-size="68" fill="#000000">4</tspan>
    </text>
    <text transform="matrix(1, 0, 0, 1, 318.368, 178.667)">
      <tspan x="-21.632" y="22.5" font-family="DejaVuSans" font-size="68" fill="#000000">3</tspan>
    </text>
  </g>
</svg>
