<?xml version="1.0" encoding="UTF-8"?>
<!DOCTYPE svg PUBLIC "-//W3C//DTD SVG 1.1//EN" "http://www.w3.org/Graphics/SVG/1.1/DTD/svg11.dtd">
<svg version="1.1" xmlns="http://www.w3.org/2000/svg" xmlns:xlink="http://www.w3.org/1999/xlink" x="0" y="0" width="650" height="295.75" viewBox="0, 0, 1000, 455">
  <g id="Layer_1">
    <g id="path3525">
      <path d="M28.884,227.505 C28.881,337.198 117.805,426.121 227.497,426.12 C337.188,426.12 426.116,337.199 426.116,227.505 C426.113,117.812 337.188,28.88 227.497,28.88 C117.804,28.881 28.883,117.812 28.884,227.505 z" fill="#FFFFFF"/>
      <path d="M28.884,227.505 C28.881,337.198 117.805,426.121 227.497,426.12 C337.188,426.12 426.116,337.199 426.116,227.505 C426.113,117.812 337.188,28.88 227.497,28.88 C117.804,28.881 28.883,117.812 28.884,227.505 z" fill-opacity="0" stroke="#000000" stroke-width="6.915"/>
    </g>
    <g id="path3527">
      <path d="M328.755,329.331 C341.492,316.593 361.677,315.848 375.293,327.083 C422.018,257.625 414.685,162.613 353.266,101.195 C327.202,75.131 295.087,58.81 261.443,52.221 C259.758,69.791 244.958,83.537 226.947,83.537 C208.934,83.537 194.135,69.793 192.45,52.222 C158.804,58.812 126.686,75.135 100.62,101.202 C39.2,162.621 31.863,257.63 78.588,327.086 C92.204,315.848 112.393,316.593 125.131,329.332 C137.869,342.07 138.614,362.259 127.375,375.875 C187.395,416.248 266.487,416.248 326.506,375.873 C315.27,362.256 316.017,342.068 328.755,329.331 z" fill="#000000"/>
      <path d="M328.755,329.331 C341.492,316.593 361.677,315.848 375.293,327.083 C422.018,257.625 414.685,162.613 353.266,101.195 C327.202,75.131 295.087,58.81 261.443,52.221 C259.758,69.791 244.958,83.537 226.947,83.537 C208.934,83.537 194.135,69.793 192.45,52.222 C158.804,58.812 126.686,75.135 100.62,101.202 C39.2,162.621 31.863,257.63 78.588,327.086 C92.204,315.848 112.393,316.593 125.131,329.332 C137.869,342.07 138.614,362.259 127.375,375.875 C187.395,416.248 266.487,416.248 326.506,375.873 C315.27,362.256 316.017,342.068 328.755,329.331 z" fill-opacity="0" stroke="#000000" stroke-width="6.915"/>
    </g>
    <g id="circle3529">
      <path d="M154.949,151.528 C154.949,162.327 146.194,171.082 135.395,171.082 C124.595,171.082 115.841,162.327 115.841,151.528 C115.841,140.729 124.595,131.974 135.395,131.974 C146.194,131.974 154.949,140.729 154.949,151.528 z" fill="#FFFFFF"/>
      <path d="M154.949,151.528 C154.949,162.327 146.194,171.082 135.395,171.082 C124.595,171.082 115.841,162.327 115.841,151.528 C115.841,140.729 124.595,131.974 135.395,131.974 C146.194,131.974 154.949,140.729 154.949,151.528 z" fill-opacity="0" stroke="#000000" stroke-width="6.915"/>
    </g>
    <g id="circle3531">
      <path d="M131.805,243.113 C131.805,253.912 123.05,262.667 112.251,262.667 C101.451,262.667 92.697,253.912 92.697,243.113 C92.697,232.314 101.451,223.559 112.251,223.559 C123.05,223.559 131.805,232.314 131.805,243.113 z" fill="#FFFFFF"/>
      <path d="M131.805,243.113 C131.805,253.912 123.05,262.667 112.251,262.667 C101.451,262.667 92.697,253.912 92.697,243.113 C92.697,232.314 101.451,223.559 112.251,223.559 C123.05,223.559 131.805,232.314 131.805,243.113 z" fill-opacity="0" stroke="#000000" stroke-width="6.915"/>
    </g>
    <g id="circle3533">
      <path d="M361.186,243.113 C361.186,253.912 352.431,262.667 341.632,262.667 C330.832,262.667 322.078,253.912 322.078,243.113 C322.078,232.314 330.832,223.559 341.632,223.559 C352.431,223.559 361.186,232.314 361.186,243.113 z" fill="#FFFFFF"/>
      <path d="M361.186,243.113 C361.186,253.912 352.431,262.667 341.632,262.667 C330.832,262.667 322.078,253.912 322.078,243.113 C322.078,232.314 330.832,223.559 341.632,223.559 C352.431,223.559 361.186,232.314 361.186,243.113 z" fill-opacity="0" stroke="#000000" stroke-width="6.915"/>
    </g>
    <g id="circle3535">
      <path d="M338.039,151.527 C338.039,162.326 329.284,171.081 318.485,171.081 C307.685,171.081 298.931,162.326 298.931,151.527 C298.931,140.728 307.685,131.973 318.485,131.973 C329.284,131.973 338.039,140.728 338.039,151.527 z" fill="#FFFFFF"/>
      <path d="M338.039,151.527 C338.039,162.326 329.284,171.081 318.485,171.081 C307.685,171.081 298.931,162.326 298.931,151.527 C298.931,140.728 307.685,131.973 318.485,131.973 C329.284,131.973 338.039,140.728 338.039,151.527 z" fill-opacity="0" stroke="#000000" stroke-width="6.915"/>
    </g>
    <g id="rect3537">
      <path d="M176.855,321.219 L277.016,321.219 L277.016,377.559 L176.855,377.559 z" fill="#FFFFFF"/>
      <path d="M176.855,321.219 L277.016,321.219 L277.016,377.559 L176.855,377.559 z" fill-opacity="0" stroke="#000000" stroke-width="6.249"/>
    </g>
    <text transform="matrix(1, 0, 0, 1, 176.581, 151.527)" id="3">
      <tspan x="-21.632" y="22.5" font-family="DejaVuSans" font-size="68" fill="#FFFFFF">4</tspan>
    </text>
    <text transform="matrix(1, 0, 0, 1, 277.299, 151.527)" id="3">
      <tspan x="-21.632" y="22.5" font-family="DejaVuSans" font-size="68" fill="#FFFFFF">3</tspan>
    </text>
    <text transform="matrix(1, 0, 0, 1, 153.437, 243.113)" id="3">
      <tspan x="-21.632" y="22.5" font-family="DejaVuSans" font-size="68" fill="#FFFFFF">2</tspan>
    </text>
    <text transform="matrix(1, 0, 0, 1, 300.446, 243.113)" id="3">
      <tspan x="-21.632" y="22.5" font-family="DejaVuSans" font-size="68" fill="#FFFFFF">1</tspan>
    </text>
    <text transform="matrix(1, 0, 0, 1, 720.542, 227.5)" id="3">
      <tspan x="-269.093" y="-135.5" font-family="DejaVuSans" font-size="68" fill="#000000">Receptacle side</tspan>
      <tspan x="-269.093" y="-56.5" font-family="DejaVuSans" font-size="68" fill="#000000">1: ADB Data</tspan>
      <tspan x="-269.093" y="22.5" font-family="DejaVuSans" font-size="68" fill="#000000">2: Power Key</tspan>
      <tspan x="-269.093" y="101.5" font-family="DejaVuSans" font-size="68" fill="#000000">3: +5V DC</tspan>
      <tspan x="-269.093" y="180.5" font-family="DejaVuSans" font-size="68" fill="#000000">4: GND</tspan>
    </text>
  </g>
</svg>
