<?xml version="1.0" encoding="UTF-8"?>
<!DOCTYPE svg PUBLIC "-//W3C//DTD SVG 1.1//EN" "http://www.w3.org/Graphics/SVG/1.1/DTD/svg11.dtd">
<svg version="1.1" xmlns="http://www.w3.org/2000/svg" xmlns:xlink="http://www.w3.org/1999/xlink" x="0" y="0" width="650" height="390" viewBox="0, 0, 1000, 600">
  <g id="Layer_1">
    <text transform="matrix(1, 0, 0, 1, 165.484, 77.333)" id="3">
      <tspan x="-97.198" y="23" font-family="DejaVuSans" font-size="68" fill="#000000">MOSI 1</tspan>
    </text>
    <text transform="matrix(1, 0, 0, 1, 165.484, 189.5)" id="3">
      <tspan x="-77.708" y="22.5" font-family="DejaVuSans" font-size="68" fill="#000000">GND 3</tspan>
    </text>
    <text transform="matrix(1, 0, 0, 1, 165.484, 301.667)" id="3">
      <tspan x="-139.665" y="22.5" font-family="DejaVuSans" font-size="68" fill="#000000">RESET 5</tspan>
    </text>
    <text transform="matrix(1, 0, 0, 1, 165.484, 413.833)" id="3">
      <tspan x="-57.022" y="22.5" font-family="DejaVuSans" font-size="68" fill="#000000">SCK 7</tspan>
    </text>
    <text transform="matrix(1, 0, 0, 1, 165.484, 526)" id="3">
      <tspan x="-97.198" y="22.5" font-family="DejaVuSans" font-size="68" fill="#000000">MISO 9</tspan>
    </text>
    <text transform="matrix(1, 0, 0, 1, 818.667, 77.333)" id="3">
      <tspan x="-170.942" y="22.75" font-family="DejaVuSans" font-size="68" fill="#000000">2 +5V DC</tspan>
    </text>
    <text transform="matrix(1, 0, 0, 1, 818.667, 189.5)" id="3">
      <tspan x="-170.942" y="22.5" font-family="DejaVuSans" font-size="68" fill="#000000">4 TXD</tspan>
    </text>
    <text transform="matrix(1, 0, 0, 1, 818.667, 301.667)" id="3">
      <tspan x="-170.942" y="22.5" font-family="DejaVuSans" font-size="68" fill="#000000">6 RXD</tspan>
    </text>
    <text transform="matrix(1, 0, 0, 1, 818.667, 413.833)" id="3">
      <tspan x="-170.942" y="22.5" font-family="DejaVuSans" font-size="68" fill="#000000">8 GND</tspan>
    </text>
    <text transform="matrix(1, 0, 0, 1, 818.667, 526)" id="3">
      <tspan x="-170.942" y="22.5" font-family="DejaVuSans" font-size="68" fill="#000000">10 GND</tspan>
    </text>
    <path d="M328.276,28 L629.609,28 L629.609,572 L328.276,572 L328.276,28 z" fill-opacity="0" stroke="#000000" stroke-width="6"/>
    <path d="M328.276,230.833 L358.942,230.833 L358.942,369.167 L328.276,369.167 L328.276,230.833 z" fill-opacity="0" stroke="#000000" stroke-width="6"/>
    <path d="M401.609,106.667 C385.409,106.667 372.276,93.534 372.276,77.333 C372.276,61.133 385.409,48 401.609,48 C417.809,48 430.942,61.133 430.942,77.333 C430.942,93.534 417.809,106.667 401.609,106.667 z" fill-opacity="0" stroke="#000000" stroke-width="6"/>
    <path d="M548.276,106.667 C532.075,106.667 518.942,93.534 518.942,77.333 C518.942,61.133 532.075,48 548.276,48 C564.476,48 577.609,61.133 577.609,77.333 C577.609,93.534 564.476,106.667 548.276,106.667 z" fill-opacity="0" stroke="#000000" stroke-width="6"/>
    <path d="M401.609,218.833 C385.409,218.833 372.276,205.7 372.276,189.5 C372.276,173.3 385.409,160.167 401.609,160.167 C417.809,160.167 430.942,173.3 430.942,189.5 C430.942,205.7 417.809,218.833 401.609,218.833 z" fill-opacity="0" stroke="#000000" stroke-width="6"/>
    <path d="M548.276,218.833 C532.075,218.833 518.942,205.7 518.942,189.5 C518.942,173.3 532.075,160.167 548.276,160.167 C564.476,160.167 577.609,173.3 577.609,189.5 C577.609,205.7 564.476,218.833 548.276,218.833 z" fill-opacity="0" stroke="#000000" stroke-width="6"/>
    <path d="M401.609,331 C385.409,331 372.276,317.867 372.276,301.667 C372.276,285.466 385.409,272.333 401.609,272.333 C417.809,272.333 430.942,285.466 430.942,301.667 C430.942,317.867 417.809,331 401.609,331 z" fill-opacity="0" stroke="#000000" stroke-width="6"/>
    <path d="M548.276,331 C532.075,331 518.942,317.867 518.942,301.667 C518.942,285.466 532.075,272.333 548.276,272.333 C564.476,272.333 577.609,285.466 577.609,301.667 C577.609,317.867 564.476,331 548.276,331 z" fill-opacity="0" stroke="#000000" stroke-width="6"/>
    <path d="M401.609,443.167 C385.409,443.167 372.276,430.034 372.276,413.833 C372.276,397.633 385.409,384.5 401.609,384.5 C417.809,384.5 430.942,397.633 430.942,413.833 C430.942,430.034 417.809,443.167 401.609,443.167 z" fill-opacity="0" stroke="#000000" stroke-width="6"/>
    <path d="M548.276,443.167 C532.075,443.167 518.942,430.034 518.942,413.833 C518.942,397.633 532.075,384.5 548.276,384.5 C564.476,384.5 577.609,397.633 577.609,413.833 C577.609,430.034 564.476,443.167 548.276,443.167 z" fill-opacity="0" stroke="#000000" stroke-width="6"/>
    <path d="M401.609,555.333 C385.409,555.333 372.276,542.2 372.276,526 C372.276,509.8 385.409,496.667 401.609,496.667 C417.809,496.667 430.942,509.8 430.942,526 C430.942,542.2 417.809,555.333 401.609,555.333 z" fill-opacity="0" stroke="#000000" stroke-width="6"/>
    <path d="M548.276,555.333 C532.075,555.333 518.942,542.2 518.942,526 C518.942,509.8 532.075,496.667 548.276,496.667 C564.476,496.667 577.609,509.8 577.609,526 C577.609,542.2 564.476,555.333 548.276,555.333 z" fill-opacity="0" stroke="#000000" stroke-width="6"/>
  </g>
</svg>
